<svg xmlns="http://www.w3.org/2000/svg" width="512" height="512" viewBox="0 0 28 28" style="enable-background:new 0 0 27.809 27.809" xml:space="preserve"><path style="fill:#fff" d="M23.76.106a.331.331 0 0 0-.276-.104l-4.367.516a.324.324 0 0 0-.258.204.328.328 0 0 0 .07.342l.891.888c.053.05.123.075.197.067l.699-.082-3.395 3.394a5.692 5.692 0 0 0-3.385-1.104 5.775 5.775 0 0 0-5.77 5.75 5.762 5.762 0 0 0 .661 11.236v2.155H6.433a.237.237 0 0 0-.24.236v1.333a.24.24 0 0 0 .24.239h2.395v2.396c0 .133.105.237.238.237h1.335c.13 0 .237-.104.237-.237v-2.396h2.396a.239.239 0 0 0 .239-.239v-1.333a.237.237 0 0 0-.239-.236h-2.396v-2.155a5.765 5.765 0 0 0 4.863-5.676 5.748 5.748 0 0 0 4.204-5.546 5.7 5.7 0 0 0-1.138-3.436l3.323-3.326-.067.593a.245.245 0 0 0 .067.195l.89.893a.322.322 0 0 0 .546-.194l.518-4.364a.335.335 0 0 0-.084-.246zM9.734 19.928a4.411 4.411 0 0 1-4.405-4.406 4.403 4.403 0 0 1 3.006-4.155 5.779 5.779 0 0 0 5.603 4.396c.064 0 .131-.004.196-.006a4.412 4.412 0 0 1-4.4 4.171zm-.056-8.81.056-.001a4.415 4.415 0 0 1 4.257 3.276.517.517 0 0 1-.054.003 4.416 4.416 0 0 1-4.259-3.278zm5.656 3.031a5.774 5.774 0 0 0-5.798-4.391 4.414 4.414 0 0 1 4.4-4.172 4.414 4.414 0 0 1 4.407 4.407c.001 1.881-1.227 3.557-3.009 4.156z"/></svg>
