<svg width="700pt" height="700pt" viewBox="0 0 700 700" fill="#ffffff" stroke="#FF00FF" stroke-width="3px" xmlns="http://www.w3.org/2000/svg" xmlns:xlink="http://www.w3.org/1999/xlink"><defs><symbol id="a" overflow="visible"><path d="M5.719-.344A3.599 3.599 0 0 1 4.797 0a3.94 3.94 0 0 1-1 .125c-1.031 0-1.856-.29-2.469-.875C.723-1.332.422-2.117.422-3.11c0-1 .3-1.785.906-2.359.613-.582 1.438-.875 2.469-.875.351 0 .687.043 1 .125.32.074.629.188.922.344v1.281a3.593 3.593 0 0 0-.875-.437 2.95 2.95 0 0 0-.906-.141c-.575 0-1.028.184-1.36.547-.324.367-.484.871-.484 1.516 0 .648.16 1.152.484 1.515.332.367.785.547 1.36.547.312 0 .613-.047.906-.14.289-.094.582-.239.875-.438z"/></symbol><symbol id="b" overflow="visible"><path d="M4.188-3.406a1.424 1.424 0 0 0-.391-.125 1.62 1.62 0 0 0-.39-.047c-.387 0-.684.125-.891.375-.2.242-.297.59-.297 1.047V0h-1.5v-4.672h1.5v.766c.187-.301.406-.52.656-.657a1.75 1.75 0 0 1 .89-.218h.157c.062 0 .148.011.265.031z"/></symbol><symbol id="c" overflow="visible"><path d="M5.39-2.344v.422h-3.5c.032.356.157.621.376.797.218.168.523.25.921.25.313 0 .63-.047.954-.14a4.921 4.921 0 0 0 1.015-.423V-.28c-.355.136-.71.234-1.062.297-.344.07-.696.109-1.047.109-.844 0-1.5-.211-1.969-.64C.609-.954.375-1.556.375-2.329c0-.758.226-1.36.687-1.797.457-.438 1.086-.656 1.891-.656.738 0 1.328.226 1.766.672.445.437.671 1.027.671 1.765zm-1.546-.5a.978.978 0 0 0-.25-.687.851.851 0 0 0-.64-.266c-.294 0-.532.086-.72.25-.18.156-.289.39-.328.703z"/></symbol><symbol id="d" overflow="visible"><path d="M2.813-2.11c-.313 0-.547.06-.704.172a.515.515 0 0 0-.234.454c0 .199.062.351.187.453.126.105.301.156.532.156a.924.924 0 0 0 .703-.297c.195-.207.297-.46.297-.766v-.171zm2.28-.562V0h-1.5v-.688c-.21.282-.437.493-.687.625-.25.126-.554.188-.906.188-.492 0-.887-.14-1.188-.422C.52-.578.375-.945.375-1.407c0-.538.187-.94.562-1.202C1.312-2.867 1.898-3 2.703-3h.89v-.11c0-.238-.093-.41-.28-.515-.188-.113-.481-.172-.876-.172-.324 0-.625.04-.906.11a2.865 2.865 0 0 0-.75.28v-1.14c.313-.082.63-.14.953-.172.32-.039.645-.062.969-.062.844 0 1.453.168 1.828.5.375.324.563.86.563 1.61z"/></symbol><symbol id="e" overflow="visible"><path d="M2.344-6v1.328H3.89v1.063H2.344v1.984c0 .219.039.371.125.453.094.074.27.11.531.11h.766V0H2.484C1.891 0 1.47-.117 1.22-.36.977-.61.859-1.03.859-1.624v-1.984H.11v-1.063h.75V-6z"/></symbol><symbol id="f" overflow="visible"><path d="M3.89-3.984V-6.5h1.516V0H3.891v-.672c-.2.274-.422.477-.672.61-.25.124-.54.187-.86.187-.574 0-1.047-.227-1.422-.688C.57-1.02.391-1.609.391-2.327s.18-1.305.546-1.766c.375-.457.848-.687 1.422-.687.32 0 .61.062.86.187s.472.328.672.61zM2.907-.97c.32 0 .567-.113.735-.344.164-.238.25-.578.25-1.015 0-.445-.086-.785-.25-1.016-.168-.238-.414-.36-.735-.36-.312 0-.554.122-.719.36-.167.23-.25.57-.25 1.016 0 .437.083.777.25 1.015.165.23.407.344.72.344z"/></symbol><symbol id="g" overflow="visible"><path d="M3.203-.969c.32 0 .567-.113.734-.344.165-.238.25-.578.25-1.015 0-.445-.085-.785-.25-1.016-.167-.238-.414-.36-.734-.36-.324 0-.57.122-.734.36-.168.23-.25.57-.25 1.016 0 .437.082.777.25 1.015.164.231.41.344.734.344zM2.22-3.984c.195-.282.422-.485.672-.61s.539-.187.875-.187c.57 0 1.039.23 1.406.687.375.461.562 1.047.562 1.766S5.547-1.02 5.172-.563c-.367.461-.836.688-1.406.688-.336 0-.625-.063-.875-.188a1.97 1.97 0 0 1-.672-.609V0h-1.5v-6.5h1.5z"/></symbol><symbol id="h" overflow="visible"><path d="M.11-4.672h1.484L2.859-1.5l1.063-3.172h1.5L3.453.438c-.2.519-.434.882-.703 1.093-.262.207-.606.313-1.031.313h-.86V.859h.47c.25 0 .429-.043.546-.125.113-.074.203-.214.266-.421l.047-.141z"/></symbol><symbol id="i" overflow="visible"><path d="M4.5-4.531v1.219a2.59 2.59 0 0 0-.625-.297c-.2-.07-.406-.11-.625-.11-.418 0-.746.125-.984.375-.23.243-.344.578-.344 1.016s.113.777.344 1.016c.238.242.566.359.984.359.227 0 .445-.031.656-.094.219-.07.414-.176.594-.312v1.218c-.242.086-.48.145-.719.188a3.49 3.49 0 0 1-.719.078c-.843 0-1.507-.21-1.984-.64C.61-.954.375-1.556.375-2.329c0-.77.234-1.367.703-1.797.477-.437 1.14-.656 1.984-.656.239 0 .477.023.72.062.238.043.476.106.718.188z"/></symbol><symbol id="j" overflow="visible"><path d="M2.938-3.719c-.325 0-.575.121-.75.36-.18.242-.266.586-.266 1.03 0 .45.086.794.266 1.032.175.23.425.344.75.344.332 0 .582-.114.75-.344.175-.238.265-.582.265-1.031 0-.446-.09-.79-.265-1.031-.168-.239-.418-.36-.75-.36zm0-1.062c.8 0 1.425.218 1.874.656.458.43.688 1.027.688 1.797 0 .762-.23 1.36-.688 1.797-.449.437-1.074.656-1.875.656-.804 0-1.433-.219-1.89-.656C.597-.97.375-1.566.375-2.328c0-.77.223-1.367.672-1.797.457-.438 1.086-.656 1.89-.656z"/></symbol><symbol id="k" overflow="visible"><path d="M2.219-.672v2.453h-1.5v-6.453h1.5v.688c.195-.282.422-.485.672-.61s.539-.187.875-.187c.57 0 1.039.23 1.406.687.375.461.562 1.047.562 1.766S5.547-1.02 5.172-.563c-.367.461-.836.688-1.406.688-.336 0-.625-.063-.875-.188a1.97 1.97 0 0 1-.672-.609zm.984-3.031c-.324 0-.57.121-.734.36-.168.23-.25.57-.25 1.015 0 .437.082.777.25 1.015.164.231.41.344.734.344.32 0 .567-.113.735-.344.164-.238.25-.578.25-1.015 0-.445-.086-.785-.25-1.016-.168-.238-.415-.36-.735-.36z"/></symbol><symbol id="l" overflow="visible"><path d="M.672-1.813v-2.859h1.5v.469c0 .25-.008.57-.016.953v.766c0 .375.008.648.032.812.019.168.054.29.109.36a.66.66 0 0 0 .234.218.668.668 0 0 0 .344.078.86.86 0 0 0 .734-.359c.176-.238.266-.566.266-.984v-2.313h1.484V0H3.875v-.672c-.23.274-.469.477-.719.61a1.83 1.83 0 0 1-.828.187c-.543 0-.953-.164-1.234-.5C.812-.707.672-1.188.672-1.813z"/></symbol><symbol id="m" overflow="visible"><path d="M4.375-4.531v1.14a5.382 5.382 0 0 0-.938-.296 3.626 3.626 0 0 0-.843-.11c-.281 0-.492.04-.625.11a.352.352 0 0 0-.203.328c0 .117.05.21.156.28.101.063.289.11.562.142l.25.03c.77.095 1.286.259 1.547.485.27.219.407.57.407 1.047 0 .5-.188.875-.563 1.125-.367.25-.914.375-1.64.375-.305 0-.622-.027-.954-.078A8.919 8.919 0 0 1 .516-.172v-1.14c.289.148.593.257.906.328.32.074.644.11.969.11.289 0 .508-.036.656-.11a.405.405 0 0 0 .219-.375.312.312 0 0 0-.157-.282c-.105-.07-.308-.125-.609-.156l-.266-.047c-.656-.082-1.12-.234-1.39-.453-.274-.226-.406-.57-.406-1.031 0-.488.164-.852.5-1.094.343-.238.867-.36 1.578-.36.27 0 .554.024.86.063.3.043.632.106 1 .188z"/></symbol><symbol id="n" overflow="visible"><path d="M.719-6.5h1.5V0h-1.5z"/></symbol><symbol id="o" overflow="visible"><path d="M.719-4.672h1.5V0h-1.5zm0-1.828h1.5v1.219h-1.5z"/></symbol><symbol id="p" overflow="visible"><path d="M3.797-6.5v.984h-.828c-.211 0-.356.043-.438.125-.086.075-.125.203-.125.391v.328h1.266v1.063H2.406V0h-1.5v-3.61h-.75v-1.062h.75V-5c0-.508.14-.883.422-1.125.281-.25.723-.375 1.328-.375z"/></symbol><symbol id="q" overflow="visible"><path d="M5.047-3.89c.187-.29.41-.508.672-.657.258-.156.547-.234.86-.234.538 0 .952.168 1.234.5.28.324.421.804.421 1.437V0h-1.5v-2.719c0-.332-.054-.57-.156-.718-.094-.145-.246-.22-.453-.22a.756.756 0 0 0-.672.36c-.148.23-.226.563-.234 1V0h-1.5v-2.437c0-.52-.047-.852-.14-1-.087-.145-.243-.22-.47-.22a.756.756 0 0 0-.671.36c-.149.23-.22.563-.22 1V0H.704v-4.672H2.22v.688a1.67 1.67 0 0 1 .625-.594c.238-.133.5-.203.781-.203.32 0 .61.078.86.234s.437.375.562.656z"/></symbol><symbol id="r" overflow="visible"><path d="M5.422-2.844V0h-1.5v-2.172c0-.406-.012-.687-.031-.844a.926.926 0 0 0-.094-.328.654.654 0 0 0-.578-.312.864.864 0 0 0-.735.36c-.18.241-.265.573-.265 1V0h-1.5v-6.5h1.5v2.516c.219-.282.453-.485.703-.61.258-.125.539-.187.844-.187.539 0 .953.168 1.234.5.281.324.422.804.422 1.437z"/></symbol><symbol id="s" overflow="visible"><path d="M.781-6.234h1.797l2.266 4.28v-4.28h1.53V0H4.579L2.312-4.281V0H.782z"/></symbol><symbol id="t" overflow="visible"><path d="M5.422-2.844V0h-1.5v-2.172c0-.406-.012-.687-.031-.844a.926.926 0 0 0-.094-.328.654.654 0 0 0-.578-.312.864.864 0 0 0-.735.36c-.18.241-.265.573-.265 1V0h-1.5v-4.672h1.5v.688c.219-.282.453-.485.703-.61.258-.125.539-.187.844-.187.539 0 .953.168 1.234.5.281.324.422.804.422 1.437z"/></symbol><symbol id="u" overflow="visible"><path d="M.781-6.234h2.672c.79 0 1.395.18 1.813.53.425.356.64.856.64 1.5 0 .657-.215 1.165-.64 1.516-.418.356-1.024.532-1.813.532H2.391V0H.78zm1.61 1.171v1.735h.89c.313 0 .551-.07.719-.219.164-.156.25-.375.25-.656 0-.27-.086-.477-.25-.625-.168-.156-.406-.234-.719-.234z"/></symbol><symbol id="v" overflow="visible"><path d="M.719-4.672h1.5v4.594c0 .625-.153 1.098-.453 1.422-.305.332-.743.5-1.313.5H-.28V.859h.25C.258.86.457.797.563.672.663.547.719.297.719-.078zm0-1.828h1.5v1.219h-1.5z"/></symbol></defs><path d="M582 205.66c0 26.133-21.18 47.312-47.312 47.312-26.129 0-47.312-21.18-47.312-47.312 0-26.129 21.184-47.312 47.312-47.312 26.133 0 47.312 21.184 47.312 47.312M679.09 395.07c0 26.129-21.184 47.312-47.312 47.312s-47.312-21.184-47.312-47.312c0-26.133 21.184-47.312 47.312-47.312s47.312 21.18 47.312 47.312M272.28 341.49c-10.113 6.254-23.094 13.152-38.867 19.426-7.313 2.906-14.773 5.477-22.348 7.777-3.176 4.985-6.367 10.426-9.55 16.312a30.773 30.773 0 0 1-27.114 16.16 30.824 30.824 0 0 1-14.598-3.703c-6.926-3.738-11.805-9.777-14.285-16.652-26.152 1.977-53.44.922-81.742-3.258-16.812-2.476-32.46 9.137-34.949 25.953-2.484 16.82 9.137 32.465 25.957 34.95 21.691 3.203 43.18 4.796 64.273 4.796 49.656 0 97.113-8.82 139.71-26.18 19.902-8.11 36.54-17.137 49.855-25.69-8.668-16.802-22.238-37.923-36.344-49.892z"/><path d="M567.86 374.16c-1.414-1.96-3.766-4.742-5.5-6.348-3.148-4.582-7.79-8.187-13.508-9.96-28.531-8.856-32.07-13.306-39.945-27.368-6.922-12.359-22.555-16.77-34.914-9.847-5.863 3.285-9.91 8.535-11.832 14.457-4.191-7.254-5.617-14.63-5.766-20.961-.226-9.684 2.48-18.512 6.489-25.2 9.574-3.698 17.117-10.73 21.605-19.397 4.465-5.93 6.238-13.648 4.539-21.113a41.483 41.483 0 0 0-1.16-7.696c-5.493-21.992-27.797-35.37-49.766-29.875-76.91 19.211-94.52 36.004-121.93 75.645a1065.529 1065.529 0 0 1-5.141 7.387c15.215 12.617 29.465 30.29 42.91 52.63 4.89 8.124 4.762 8.894 6.813 7.87 3.484-1.742 7.37-3.207 11.07-4.43 4.55-6.203 8.378-11.733 11.863-16.772 9.277-13.418 13.305-19.04 19.895-23.457.5-.336 1.039-.672 1.59-1.008a98.461 98.461 0 0 0-.075 6.625c.266 11.395 2.488 22.28 6.465 32.414-17.672 1.293-32.492 4.472-45.371 9.719-1.266.519-9.188 4.988-9.813 3.828-2.21-4.094-4.464-8.164-6.847-12.164-12.945-21.77-26.836-38.852-41.48-51.062-6.364-5.309-12.863-9.707-19.492-13.152-12-6.235-24.312-9.399-36.602-9.399-36.805 0-70.48 27.816-100.1 82.668-3.844 7.117-3.953 15.258-1.024 22.184 2.192 5.188 6.078 9.696 11.406 12.574a25.677 25.677 0 0 0 12.16 3.086 25.65 25.65 0 0 0 22.598-13.469 287.186 287.186 0 0 1 6.68-11.71c17.16-28.427 34.211-43.915 48.645-43.915.562 0 1.121.024 1.676.07 7.625.645 15.348 5.102 22.723 11.645 14.527 12.88 27.695 33.863 36.102 49.957 4.125 7.903 7.105 14.63 8.531 18.625l.07.227a25.994 25.994 0 0 0 1.957 5.219l.203.547a35.783 35.783 0 0 0 9.461 16.914c6.782 6.785 15.797 10.52 25.387 10.52h.008c9.594 0 18.61-3.739 25.395-10.516 7.649-7.649 22.461-11.211 46.617-11.211 23.5 0 56.824 3.511 101.86 10.734a36.3 36.3 0 0 0 5.735.457c17.707 0 32.602-12.711 35.406-30.23 1.535-9.465.03-17.965-5.594-25.738z"/></svg>
