<svg xmlns="http://www.w3.org/2000/svg" width=" 192" height=" 192" fill-rule="evenodd" class="vector-svg"><path fill="gray" stroke="#000" stroke-width="3px" stroke-linecap="round" shape-rendering="geometricPrecision" d="M 172 60 m -12 0 a 12 12 0 1 0 24 0 a 12 12 0 1 0 -24 0" style="fill: #FF69B4; stroke: #000;"/><path fill="gray" stroke="#000" stroke-width="3px" stroke-linecap="round" shape-rendering="geometricPrecision" d="M 136 88 m -24 0 a 24 24 0 1 0 48 0 a 24 24 0 1 0 -48 0" style="fill: #8B008B; stroke: #000"/><path fill="gray" stroke="#000" stroke-width="3px" stroke-linecap="round" shape-rendering="geometricPrecision" d="M 136 148 m -28 0 a 28 28 0 1 0 56 0 a 28 28 0 1 0 -56 0" style="fill: #FF00FF; stroke: #000"/><path fill="gray" stroke="#000" stroke-width="3px" stroke-linecap="round" shape-rendering="geometricPrecision" d="M 56 64 m -48 0 a 48 48 0 1 0 96 0 a 48 48 0 1 0 -96 0" style="fill: #FF1493; stroke: #000"/></svg>
